<svg data-v-423bf9ae="" xmlns="http://www.w3.org/2000/svg" viewBox="0 0 467.434140485092 60" class="font"><!----><!----><!----><g data-v-423bf9ae="" id="ddadd3e9-b47c-4258-8008-7bb724e171cc" fill="white" transform="matrix(3.2467529920755243,0,0,3.2467529920755243,-1.6883144948296547,-1.0064938525167868)"><path d="M8.37 10.72Q8.86 10.36 9.12 9.91Q9.38 9.45 9.38 8.99L9.38 8.99Q9.38 8.54 9.11 8.13Q8.85 7.71 8.32 7.39L8.32 7.39Q7.24 6.75 5.95 6.75L5.95 6.75Q4.86 6.75 3.89 7.21L3.89 7.21Q3.56 8.82 2.94 12.07L2.94 12.07L2.94 12.10Q4.73 12.03 6.04 11.76Q7.35 11.49 8.37 10.72L8.37 10.72ZM7.08 3.25Q6.92 2.34 5.98 2.34L5.98 2.34Q5.53 2.34 4.94 2.55L4.94 2.55Q4.68 3.64 4.20 5.82L4.20 5.82Q5.28 5.56 6.20 4.93Q7.11 4.30 7.11 3.49L7.11 3.49Q7.11 3.42 7.08 3.25L7.08 3.25ZM8.92 6.29Q9.80 6.68 10.31 7.31Q10.82 7.94 10.82 8.69L10.82 8.69Q10.82 9.42 10.35 10.12L10.35 10.12Q9.23 11.79 7.01 12.46Q4.79 13.13 2.17 13.13L2.17 13.13Q1.47 13.13 0.84 13.09L0.84 13.09Q0.52 13.08 0.52 12.89L0.52 12.89Q0.52 12.70 0.86 12.43Q1.20 12.17 1.44 12.14L1.44 12.14Q2.25 7.80 3.32 3.35L3.32 3.35Q3.15 3.39 2.95 3.39L2.95 3.39Q2.73 3.39 2.58 3.33Q2.44 3.28 2.44 3.15L2.44 3.15Q2.44 3.00 2.69 2.77L2.69 2.77Q3.02 2.48 3.63 2.14L3.63 2.14Q3.63 2.10 3.65 2.02L3.65 2.02Q3.72 1.76 4.08 1.58Q4.44 1.40 4.77 1.40L4.77 1.40Q5.04 1.40 5.11 1.51L5.11 1.51Q5.88 1.30 6.47 1.30L6.47 1.30Q7.99 1.30 8.44 2.53L8.44 2.53Q8.57 2.87 8.57 3.19L8.57 3.19Q8.57 3.91 8.04 4.56Q7.52 5.22 6.65 5.77L6.65 5.77Q7.87 5.81 8.92 6.29L8.92 6.29ZM12.59 10.51Q12.56 10.68 12.56 10.75L12.56 10.75Q12.56 11.31 13.10 11.31L13.10 11.31Q13.43 11.31 13.89 11.13L13.89 11.13Q14.31 10.96 15.44 10.42L15.44 10.42Q15.47 10.07 15.50 9.74Q15.54 9.41 15.57 9.14L15.57 9.14L15.67 8.18Q14.70 8.64 14.22 8.90L14.22 8.90Q13.52 9.31 13.10 9.67Q12.68 10.02 12.59 10.51L12.59 10.51ZM16.23 3.92Q16.86 3.92 17.07 4.23Q17.29 4.55 17.29 5.15L17.29 5.15L17.28 5.54Q17.22 6.57 17.02 8.54L17.02 8.54Q16.98 8.82 16.93 9.48L16.93 9.48Q16.87 9.88 16.83 10.14L16.83 10.14Q16.98 10.22 16.98 10.36L16.98 10.36Q16.98 10.46 16.88 10.65L16.88 10.65L16.83 10.72L16.74 10.81Q16.65 11.52 16.65 12.03L16.65 12.03Q16.84 12.14 16.84 12.29L16.84 12.29Q16.84 12.53 16.49 12.80L16.49 12.80Q16.39 12.87 16.27 12.94L16.27 12.94Q16.17 12.99 16.00 13.03Q15.82 13.08 15.65 13.08L15.65 13.08Q15.13 13.08 15.18 12.70L15.18 12.70L15.29 11.52Q13.41 12.42 12.40 12.42L12.40 12.42Q11.13 12.42 11.13 11.05L11.13 11.05Q11.13 9.73 12.49 8.81Q13.86 7.88 15.76 7.14L15.76 7.14Q15.82 6.59 15.85 6.03L15.85 6.03Q15.85 5.92 15.86 5.75Q15.88 5.59 15.88 5.38L15.88 5.38Q15.88 5.11 15.83 5.03L15.83 5.03L15.79 4.97L15.78 4.97Q15.57 4.97 14.99 5.54L14.99 5.54Q14.48 6.05 13.71 7.06L13.71 7.06Q13.59 7.21 13.33 7.31Q13.08 7.41 12.81 7.41L12.81 7.41Q12.61 7.41 12.48 7.34Q12.35 7.27 12.35 7.13L12.35 7.13Q12.35 7.01 12.46 6.83L12.46 6.83Q14.39 3.92 16.23 3.92L16.23 3.92ZM23.60 4.06Q24.16 4.37 24.16 5.36L24.16 5.36Q24.16 5.73 24.09 6.17Q24.02 6.61 23.94 7L23.94 7L23.84 7.56L23.25 11.91Q23.53 11.98 23.49 12.26L23.49 12.26Q23.34 13.03 22.40 13.24L22.40 13.24L22.26 13.26Q22.02 13.26 21.84 13.16Q21.66 13.06 21.69 12.85L21.69 12.85Q22.27 8.60 22.55 6.47L22.55 6.47Q22.57 6.41 22.62 6.15Q22.67 5.88 22.67 5.64L22.67 5.64Q22.67 5.19 22.43 5.18L22.43 5.18Q22.25 5.15 21.83 5.68Q21.42 6.20 21.38 6.26L21.38 6.26Q20.54 7.21 19.81 8.39L19.81 8.39Q19.47 10.43 19.28 11.69L19.28 11.69L19.21 12.14Q19.17 12.40 18.82 12.60Q18.47 12.80 18.13 12.80L18.13 12.80Q17.92 12.80 17.80 12.71Q17.68 12.61 17.71 12.43L17.71 12.43Q18.07 10.29 18.28 8.93L18.28 8.93Q18.20 8.85 18.20 8.74L18.20 8.74Q18.20 8.67 18.24 8.58L18.24 8.58Q18.28 8.51 18.32 8.46Q18.35 8.40 18.38 8.36L18.38 8.36L18.94 4.97Q18.98 4.72 19.32 4.54Q19.66 4.35 19.99 4.35L19.99 4.35Q20.20 4.35 20.31 4.44Q20.43 4.52 20.40 4.69L20.40 4.69Q20.33 5.15 20.20 5.88L20.20 5.88L20.79 5.25Q21.38 4.66 21.91 4.28Q22.44 3.91 22.99 3.91L22.99 3.91Q23.34 3.91 23.60 4.06L23.60 4.06ZM26.22 11.40Q26.49 11.61 26.91 11.61L26.91 11.61Q27.40 11.61 28.15 11.28L28.15 11.28Q28.60 8.69 28.85 6.19L28.85 6.19L28.83 6.19Q28.07 6.19 27.44 6.71Q26.81 7.22 26.40 7.99Q25.98 8.76 25.83 9.52L25.83 9.52Q25.76 9.87 25.76 10.21L25.76 10.21Q25.76 11.03 26.22 11.40L26.22 11.40ZM29.19 1.75Q29.20 1.50 29.54 1.31Q29.88 1.12 30.23 1.12L30.23 1.12Q30.66 1.12 30.65 1.44L30.65 1.44Q30.41 6.06 29.64 10.98L29.64 10.98Q29.86 11.09 29.86 11.27L29.86 11.27Q29.86 11.48 29.53 11.68L29.53 11.68L29.44 12.19Q29.39 12.46 29.04 12.65Q28.70 12.84 28.36 12.84L28.36 12.84Q28.15 12.84 28.03 12.75Q27.90 12.66 27.94 12.47L27.94 12.47Q27.94 12.40 27.96 12.38L27.96 12.38Q27.06 12.66 26.47 12.66L26.47 12.66Q25.83 12.66 25.31 12.38L25.31 12.38Q24.79 12.11 24.56 11.61Q24.32 11.10 24.32 10.47L24.32 10.47Q24.32 10.25 24.37 9.86L24.37 9.86Q24.57 8.72 25.21 7.67Q25.86 6.62 26.84 5.95Q27.82 5.28 28.95 5.24L28.95 5.24Q29.12 3.32 29.19 1.75L29.19 1.75ZM34.27 5.07Q33.56 5.61 33.11 6.83L33.11 6.83Q34.48 6.31 35.59 5.96L35.59 5.96Q35.13 5.32 34.65 5.10L34.65 5.10Q34.55 5.05 34.46 5.04Q34.37 5.03 34.36 5.03L34.36 5.03Q34.37 5.04 34.34 5.05Q34.30 5.07 34.27 5.07L34.27 5.07ZM34.33 4.07Q34.55 4.02 34.80 4.02L34.80 4.02Q36.15 4.02 37.24 5.82L37.24 5.82Q37.28 5.88 37.28 5.96L37.28 5.96Q37.28 6.12 37.09 6.29L37.09 6.29Q36.93 6.45 36.69 6.55L36.69 6.55Q35.29 7.17 32.80 8.02L32.80 8.02Q32.66 8.74 32.66 9.49L32.66 9.49Q32.66 9.84 32.68 10.00L32.68 10.00Q32.70 10.63 32.93 11.09L32.93 11.09Q33.00 11.24 33.13 11.38Q33.26 11.52 33.33 11.56L33.33 11.56Q33.38 11.59 33.47 11.59L33.47 11.59Q33.57 11.59 33.70 11.54Q33.84 11.48 34.01 11.38L34.01 11.38Q34.41 11.14 34.76 10.84Q35.11 10.53 35.60 10.04L35.60 10.04Q35.80 9.84 36.26 9.84L36.26 9.84Q36.51 9.84 36.69 9.92Q36.86 10.00 36.86 10.14L36.86 10.14Q36.86 10.26 36.72 10.42L36.72 10.42Q35.85 11.35 34.94 12.01Q34.03 12.67 33.12 12.67L33.12 12.67Q32.69 12.67 32.31 12.49L32.31 12.49Q31.68 12.19 31.40 11.55Q31.12 10.91 31.12 10.04L31.12 10.04Q31.12 9.39 31.29 8.53L31.29 8.53L31.18 8.55L31.07 8.60Q30.86 8.67 30.73 8.67L30.73 8.67Q30.53 8.67 30.42 8.57Q30.31 8.47 30.31 8.32L30.31 8.32Q30.31 8.13 30.46 7.96Q30.60 7.78 30.90 7.67L30.90 7.67L31.58 7.41Q31.71 7.01 31.96 6.38L31.96 6.38Q32.35 5.52 32.94 4.89Q33.53 4.26 34.33 4.07L34.33 4.07ZM43.09 4.06Q43.65 4.37 43.65 5.36L43.65 5.36Q43.65 5.73 43.58 6.17Q43.51 6.61 43.43 7L43.43 7L43.33 7.56L42.74 11.91Q43.02 11.98 42.98 12.26L42.98 12.26Q42.83 13.03 41.89 13.24L41.89 13.24L41.75 13.26Q41.51 13.26 41.33 13.16Q41.15 13.06 41.17 12.85L41.17 12.85Q41.76 8.60 42.04 6.47L42.04 6.47Q42.06 6.41 42.10 6.15Q42.15 5.88 42.15 5.64L42.15 5.64Q42.15 5.19 41.92 5.18L41.92 5.18Q41.73 5.15 41.32 5.68Q40.91 6.20 40.87 6.26L40.87 6.26Q40.03 7.21 39.30 8.39L39.30 8.39Q38.96 10.43 38.77 11.69L38.77 11.69L38.70 12.14Q38.65 12.40 38.30 12.60Q37.95 12.80 37.62 12.80L37.62 12.80Q37.41 12.80 37.29 12.71Q37.17 12.61 37.20 12.43L37.20 12.43Q37.56 10.29 37.77 8.93L37.77 8.93Q37.69 8.85 37.69 8.74L37.69 8.74Q37.69 8.67 37.73 8.58L37.73 8.58Q37.77 8.51 37.81 8.46Q37.84 8.40 37.87 8.36L37.87 8.36L38.43 4.97Q38.47 4.72 38.81 4.54Q39.14 4.35 39.48 4.35L39.48 4.35Q39.69 4.35 39.80 4.44Q39.91 4.52 39.89 4.69L39.89 4.69Q39.82 5.15 39.69 5.88L39.69 5.88L40.28 5.25Q40.87 4.66 41.40 4.28Q41.93 3.91 42.48 3.91L42.48 3.91Q42.83 3.91 43.09 4.06L43.09 4.06ZM46.45 11.13Q47.03 10.36 47.45 9.51L47.45 9.51Q47.81 8.81 48.22 7.77Q48.62 6.73 48.62 6.06L48.62 6.06Q48.62 5.84 48.57 5.71L48.57 5.71Q48.15 5.74 48.06 5.46L48.06 5.46Q47.96 5.11 47.85 5.11L47.85 5.11Q47.77 5.11 47.68 5.21Q47.60 5.32 47.45 5.59L47.45 5.59Q47.25 5.88 47.03 6.40L47.03 6.40Q46.56 7.38 46.27 8.32L46.27 8.32Q45.93 9.28 45.74 10.07Q45.54 10.85 45.54 11.56L45.54 11.56Q45.54 11.87 45.58 12.17L45.58 12.17L45.88 11.86Q46.14 11.55 46.45 11.13L46.45 11.13ZM49.41 4.52Q49.83 4.69 50.01 5.00Q50.19 5.31 50.19 5.78L50.19 5.78Q50.19 6.23 49.97 7.32L49.97 7.32Q49.35 10.21 48.96 12.59Q48.58 14.97 48.41 17.29L48.41 17.29Q48.40 17.49 48.36 17.63Q48.33 17.78 48.23 17.99L48.23 17.99Q48.08 18.30 47.75 18.54Q47.42 18.79 47.12 18.79L47.12 18.79Q46.86 18.79 46.72 18.55L46.72 18.55L46.31 17.85Q45.43 16.31 44.81 15.33L44.81 15.33Q44.77 15.27 44.77 15.19L44.77 15.19Q44.77 14.95 45.12 14.74Q45.47 14.53 45.84 14.53L45.84 14.53Q46.20 14.53 46.34 14.77L46.34 14.77Q46.54 15.13 46.79 15.55L46.79 15.55L47.07 16.04Q47.38 13.57 47.75 11.37L47.75 11.37Q47.11 12.26 46.40 12.91Q45.70 13.55 45.09 13.55L45.09 13.55Q44.63 13.55 44.30 13.13L44.30 13.13Q44.02 12.78 44.02 12.12L44.02 12.12Q44.02 11.76 44.08 11.41Q44.14 11.06 44.28 10.46L44.28 10.46L44.37 10.12Q44.79 8.22 45.61 6.41L45.61 6.41Q46.00 5.59 46.40 5.04Q46.80 4.49 47.42 4.21L47.42 4.21Q47.80 4.03 48.26 4.03L48.26 4.03Q48.94 4.03 49.31 4.49L49.31 4.49L49.41 4.52ZM57.81 6.47Q60.59 5.38 60.59 4.42L60.59 4.42Q60.59 3.88 59.91 3.59Q59.22 3.30 58.10 3.07L58.10 3.07Q57.83 3.02 57.48 2.93L57.48 2.93L57.09 2.80Q56.63 5.14 56.36 6.90L56.36 6.90Q56.87 6.85 57.81 6.47L57.81 6.47ZM60.62 2.67Q61.26 2.91 61.61 3.29Q61.95 3.67 61.95 4.12L61.95 4.12Q61.95 4.76 61.25 5.42L61.25 5.42Q60.31 6.30 59.00 6.94Q57.69 7.57 56.39 7.80L56.39 7.80Q56.28 7.83 56.22 7.83L56.22 7.83Q55.87 10.16 55.71 12.08L55.71 12.08Q55.68 12.35 55.31 12.54Q54.95 12.74 54.59 12.74L54.59 12.74Q54.39 12.74 54.26 12.66Q54.14 12.57 54.15 12.40L54.15 12.40Q54.38 10.16 54.73 7.70L54.73 7.70Q54.07 7.42 54.07 6.71L54.07 6.71Q54.07 6.40 54.21 5.99L54.21 5.99Q54.28 5.81 54.54 5.68Q54.81 5.54 55.09 5.52L55.09 5.52Q55.33 4.14 55.78 2.21L55.78 2.21Q55.09 1.72 55.03 0.97L55.03 0.97Q55.02 0.71 55.36 0.51Q55.69 0.31 56.04 0.31L56.04 0.31Q56.52 0.31 56.53 0.66L56.53 0.66Q56.55 0.97 56.77 1.23L56.77 1.23Q56.84 1.22 56.98 1.22L56.98 1.22Q57.43 1.22 57.37 1.53L57.37 1.53L57.33 1.67Q57.75 1.90 58.30 2.06Q58.84 2.23 59.60 2.39L59.60 2.39Q60.38 2.58 60.62 2.67L60.62 2.67ZM65.53 3.88Q65.94 3.71 66.28 3.71L66.28 3.71Q66.64 3.71 66.86 3.90Q67.09 4.09 67.09 4.51L67.09 4.51Q67.09 4.91 66.96 5.39Q66.84 5.87 66.61 6.51L66.61 6.51L66.42 7.10Q66.33 7.36 65.98 7.55Q65.63 7.73 65.31 7.73L65.31 7.73Q65.10 7.73 65.00 7.64Q64.89 7.55 64.95 7.36L64.95 7.36Q65.20 6.58 65.45 5.63L65.45 5.63Q65.51 5.19 65.53 5.05L65.53 5.05L65.48 5.11Q64.40 6.03 63.50 7.43L63.50 7.43Q63.10 9.66 63 11.90L63 11.90Q62.99 12.17 62.64 12.37Q62.30 12.57 61.94 12.57L61.94 12.57Q61.73 12.57 61.59 12.47Q61.45 12.38 61.46 12.18L61.46 12.18Q61.57 10.16 61.89 8.26L61.89 8.26Q61.75 8.16 61.75 8.04L61.75 8.04Q61.75 7.95 61.81 7.85L61.81 7.85L62.02 7.50Q62.33 5.89 62.78 4.27L62.78 4.27Q62.85 4.02 63.22 3.83Q63.59 3.64 63.92 3.64L63.92 3.64Q64.13 3.64 64.25 3.72Q64.36 3.81 64.30 3.98L64.30 3.98Q64.08 4.76 64.02 5.01L64.02 5.01Q64.86 4.17 65.53 3.88L65.53 3.88ZM70.53 5.07Q69.82 5.61 69.37 6.83L69.37 6.83Q70.74 6.31 71.85 5.96L71.85 5.96Q71.39 5.32 70.91 5.10L70.91 5.10Q70.81 5.05 70.72 5.04Q70.63 5.03 70.62 5.03L70.62 5.03Q70.63 5.04 70.59 5.05Q70.56 5.07 70.53 5.07L70.53 5.07ZM70.59 4.07Q70.81 4.02 71.06 4.02L71.06 4.02Q72.41 4.02 73.50 5.82L73.50 5.82Q73.54 5.88 73.54 5.96L73.54 5.96Q73.54 6.12 73.35 6.29L73.35 6.29Q73.19 6.45 72.95 6.55L72.95 6.55Q71.55 7.17 69.06 8.02L69.06 8.02Q68.92 8.74 68.92 9.49L68.92 9.49Q68.92 9.84 68.94 10.00L68.94 10.00Q68.96 10.63 69.19 11.09L69.19 11.09Q69.26 11.24 69.39 11.38Q69.52 11.52 69.59 11.56L69.59 11.56Q69.64 11.59 69.73 11.59L69.73 11.59Q69.83 11.59 69.96 11.54Q70.10 11.48 70.27 11.38L70.27 11.38Q70.67 11.14 71.02 10.84Q71.37 10.53 71.86 10.04L71.86 10.04Q72.06 9.84 72.52 9.84L72.52 9.84Q72.77 9.84 72.95 9.92Q73.12 10.00 73.12 10.14L73.12 10.14Q73.12 10.26 72.98 10.42L72.98 10.42Q72.11 11.35 71.20 12.01Q70.29 12.67 69.38 12.67L69.38 12.67Q68.95 12.67 68.57 12.49L68.57 12.49Q67.94 12.19 67.66 11.55Q67.38 10.91 67.38 10.04L67.38 10.04Q67.38 9.39 67.55 8.53L67.55 8.53L67.44 8.55L67.33 8.60Q67.12 8.67 66.99 8.67L66.99 8.67Q66.79 8.67 66.68 8.57Q66.57 8.47 66.57 8.32L66.57 8.32Q66.57 8.13 66.72 7.96Q66.86 7.78 67.16 7.67L67.16 7.67L67.84 7.41Q67.97 7.01 68.22 6.38L68.22 6.38Q68.61 5.52 69.20 4.89Q69.79 4.26 70.59 4.07L70.59 4.07ZM75.82 5.98Q75.82 6.51 76.10 6.92Q76.37 7.32 76.76 7.60Q77.15 7.88 77.83 8.26L77.83 8.26Q78.74 8.78 79.22 9.20Q79.70 9.62 79.86 10.25L79.86 10.25Q79.91 10.53 79.91 10.65L79.91 10.65Q79.91 11.63 78.88 12.06Q77.84 12.49 76.52 12.49L76.52 12.49Q76.01 12.49 75.61 12.42L75.61 12.42Q75.15 12.33 74.65 12.09Q74.16 11.84 73.83 11.49Q73.50 11.13 73.50 10.75L73.50 10.75Q73.50 10.16 74.41 9.67L74.41 9.67Q74.66 9.55 74.90 9.55L74.90 9.55Q75.12 9.55 75.27 9.65Q75.42 9.74 75.42 9.88L75.42 9.88Q75.42 10.14 75.01 10.37L75.01 10.37Q74.93 10.42 74.93 10.50L74.93 10.50Q74.93 10.67 75.19 10.91Q75.46 11.14 75.61 11.23L75.61 11.23Q76.03 11.47 76.96 11.52L76.96 11.52Q77.07 11.54 77.35 11.54L77.35 11.54Q77.85 11.54 78.16 11.37Q78.47 11.20 78.43 10.75L78.43 10.75Q78.37 10.15 77.21 9.39L77.21 9.39L76.68 9.06Q75.95 8.61 75.48 8.27Q75.01 7.92 74.68 7.44Q74.34 6.96 74.34 6.36L74.34 6.36Q74.34 5.98 74.48 5.60L74.48 5.60Q74.79 4.69 75.63 4.19Q76.47 3.70 77.43 3.70L77.43 3.70Q78.43 3.70 79.11 4.20Q79.79 4.70 79.79 5.63L79.79 5.63Q79.79 5.92 79.70 6.26L79.70 6.26Q79.65 6.51 79.28 6.69Q78.92 6.87 78.60 6.87L78.60 6.87Q78.40 6.87 78.29 6.79Q78.19 6.71 78.25 6.55L78.25 6.55Q78.33 6.26 78.33 5.96L78.33 5.96Q78.33 5.50 78.09 5.18Q77.85 4.86 77.39 4.73L77.39 4.73Q77.14 4.68 77.01 4.68L77.01 4.68Q76.51 4.68 76.17 5.03Q75.82 5.39 75.82 5.98L75.82 5.98ZM85.62 9.49Q85.72 9.39 85.93 9.34Q86.14 9.28 86.35 9.28L86.35 9.28Q86.87 9.28 86.87 9.55L86.87 9.55Q86.87 9.67 86.73 9.83L86.73 9.83Q86.56 10.02 86.42 10.20Q86.28 10.37 86.17 10.51L86.17 10.51Q85.55 11.31 85.06 11.78Q84.57 12.25 83.92 12.46L83.92 12.46Q83.61 12.56 83.26 12.56L83.26 12.56Q82.67 12.56 82.26 12.22Q81.84 11.89 81.77 11.24L81.77 11.24Q81.75 11.06 81.75 10.68L81.75 10.68Q81.75 9.95 81.91 9.20Q82.08 8.44 82.40 7.31L82.40 7.31L82.57 6.71L82.04 6.76Q81.65 6.79 80.98 6.87L80.98 6.87Q80.65 6.92 80.49 6.80Q80.32 6.69 80.32 6.51L80.32 6.51Q80.32 6.30 80.52 6.10Q80.72 5.89 81.05 5.87L81.05 5.87L82.85 5.66Q83.47 3.39 84.24 1.20L84.24 1.20Q84.31 1.01 84.62 0.86Q84.94 0.71 85.23 0.71L85.23 0.71Q85.41 0.71 85.53 0.78Q85.65 0.85 85.65 0.99L85.65 0.99Q85.65 1.04 85.62 1.15L85.62 1.15Q84.81 3.43 84.27 5.50L84.27 5.50Q85.25 5.40 85.57 5.40L85.57 5.40Q85.97 5.40 85.97 5.64L85.97 5.64Q85.97 5.84 85.74 6.07Q85.50 6.30 85.25 6.36L85.25 6.36Q84.41 6.50 83.99 6.55L83.99 6.55Q83.75 7.50 83.57 8.41L83.57 8.41Q83.54 8.53 83.37 9.23Q83.20 9.94 83.20 10.56L83.20 10.56Q83.20 11.35 83.62 11.42L83.62 11.42Q83.89 11.47 84.23 11.12Q84.57 10.78 85.12 10.09L85.12 10.09Q85.46 9.66 85.62 9.49L85.62 9.49ZM92.47 7.71Q92.47 6.23 90.73 5.38L90.73 5.38Q90.30 5.74 89.87 6.34L89.87 6.34Q89.33 7.11 88.98 8.06L88.98 8.06Q88.84 8.44 88.72 9.09Q88.59 9.74 88.59 10.30L88.59 10.30Q88.59 10.88 88.75 11.22Q88.91 11.56 89.28 11.56L89.28 11.56Q89.57 11.56 89.96 11.33L89.96 11.33Q91.04 10.70 91.76 9.76Q92.47 8.82 92.47 7.71L92.47 7.71ZM92.86 5.18Q93.37 5.66 93.64 6.26Q93.91 6.86 93.91 7.53L93.91 7.53Q93.91 8.50 93.35 9.49L93.35 9.49Q92.97 10.16 92.25 10.91Q91.52 11.65 90.63 12.16Q89.74 12.67 88.93 12.67L88.93 12.67Q88.42 12.67 87.98 12.45L87.98 12.45Q87.02 11.93 87.02 10.58L87.02 10.58Q87.02 9.62 87.46 8.46Q87.89 7.31 88.38 6.51L88.38 6.51Q89.57 4.62 90.89 4.13L90.89 4.13Q91.25 3.99 91.67 3.99L91.67 3.99Q92.16 3.99 92.50 4.23Q92.83 4.48 92.89 5.00L92.89 5.00L92.89 5.05Q92.89 5.10 92.86 5.18L92.86 5.18ZM105.91 10.72Q106.40 10.36 106.66 9.91Q106.92 9.45 106.92 8.99L106.92 8.99Q106.92 8.54 106.65 8.13Q106.39 7.71 105.85 7.39L105.85 7.39Q104.78 6.75 103.49 6.75L103.49 6.75Q102.40 6.75 101.43 7.21L101.43 7.21Q101.09 8.82 100.48 12.07L100.48 12.07L100.48 12.10Q102.27 12.03 103.58 11.76Q104.89 11.49 105.91 10.72L105.91 10.72ZM104.62 3.25Q104.45 2.34 103.52 2.34L103.52 2.34Q103.07 2.34 102.48 2.55L102.48 2.55Q102.21 3.64 101.74 5.82L101.74 5.82Q102.82 5.56 103.73 4.93Q104.65 4.30 104.65 3.49L104.65 3.49Q104.65 3.42 104.62 3.25L104.62 3.25ZM106.46 6.29Q107.34 6.68 107.85 7.31Q108.36 7.94 108.36 8.69L108.36 8.69Q108.36 9.42 107.88 10.12L107.88 10.12Q106.76 11.79 104.55 12.46Q102.33 13.13 99.71 13.13L99.71 13.13Q99.01 13.13 98.38 13.09L98.38 13.09Q98.06 13.08 98.06 12.89L98.06 12.89Q98.06 12.70 98.40 12.43Q98.74 12.17 98.98 12.14L98.98 12.14Q99.79 7.80 100.86 3.35L100.86 3.35Q100.69 3.39 100.49 3.39L100.49 3.39Q100.27 3.39 100.12 3.33Q99.97 3.28 99.97 3.15L99.97 3.15Q99.97 3.00 100.23 2.77L100.23 2.77Q100.56 2.48 101.16 2.14L101.16 2.14Q101.16 2.10 101.19 2.02L101.19 2.02Q101.26 1.76 101.62 1.58Q101.98 1.40 102.31 1.40L102.31 1.40Q102.58 1.40 102.65 1.51L102.65 1.51Q103.42 1.30 104.01 1.30L104.01 1.30Q105.53 1.30 105.98 2.53L105.98 2.53Q106.11 2.87 106.11 3.19L106.11 3.19Q106.11 3.91 105.58 4.56Q105.06 5.22 104.19 5.77L104.19 5.77Q105.41 5.81 106.46 6.29L106.46 6.29ZM114.94 4.77Q115.04 4.61 115.42 4.42Q115.81 4.23 116.10 4.23L116.10 4.23Q116.52 4.23 116.47 4.62L116.47 4.62Q116.47 4.66 116.45 4.75Q116.44 4.83 116.42 4.87L116.42 4.87L116.42 4.90Q116.28 5.84 116.11 7.15Q115.93 8.46 115.84 9.20L115.84 9.20L115.47 11.89Q115.43 12.17 115.07 12.36Q114.72 12.56 114.35 12.56L114.35 12.56Q114.13 12.56 114.00 12.46Q113.86 12.36 113.89 12.18L113.89 12.18Q114.04 10.98 114.38 8.57L114.38 8.57L114.24 8.81Q113.88 9.42 113.69 9.70L113.69 9.70Q113.06 10.68 112.36 11.35Q111.65 12.03 110.74 12.25L110.74 12.25Q110.39 12.33 110.11 12.33L110.11 12.33Q108.79 12.33 108.79 10.54L108.79 10.54Q108.79 9.70 109.06 8.63Q109.33 7.56 109.67 6.62Q110.01 5.68 110.26 5.19L110.26 5.19Q110.36 5.00 110.70 4.85Q111.05 4.70 111.37 4.70L111.37 4.70Q111.57 4.70 111.69 4.77Q111.80 4.84 111.80 4.97L111.80 4.97Q111.80 5.03 111.76 5.14L111.76 5.14Q110.82 7.20 110.54 8.88L110.54 8.88L110.47 9.25Q110.36 9.84 110.36 10.15L110.36 10.15Q110.36 10.30 110.38 10.37L110.38 10.37Q110.54 11.09 110.92 11.05L110.92 11.05Q111.08 11.03 111.29 10.78Q111.51 10.53 111.57 10.47L111.57 10.47Q112.25 9.67 112.81 8.73Q113.37 7.78 114.11 6.36L114.11 6.36Q114.49 5.59 114.94 4.77L114.94 4.77ZM127.90 2.18L127.95 2.51Q128.09 3.75 128.16 4.50Q128.23 5.25 128.23 6.06L128.23 6.06Q128.23 9.32 126.77 10.99L126.77 10.99Q125.96 11.91 124.92 12.43Q123.87 12.95 122.81 12.95L122.81 12.95Q121.91 12.95 121.09 12.56Q120.27 12.17 119.60 11.38L119.60 11.38Q119.52 11.27 119.52 11.17L119.52 11.17Q119.52 10.92 119.88 10.70Q120.23 10.49 120.58 10.49L120.58 10.49Q120.83 10.49 120.96 10.63L120.96 10.63Q122.05 11.94 123.23 11.94L123.23 11.94Q123.77 11.94 124.29 11.66L124.29 11.66Q124.88 11.37 125.35 10.88Q125.82 10.39 126.08 9.79L126.08 9.79Q126.71 8.36 126.71 6.17L126.71 6.17Q126.20 6.97 125.49 7.43Q124.78 7.90 123.93 7.90L123.93 7.90Q122.92 7.90 122.49 7.27Q122.05 6.64 122.05 5.60L122.05 5.60Q122.05 4.73 122.26 3.86Q122.46 2.98 122.79 1.88L122.79 1.88Q122.86 1.65 123.25 1.47Q123.63 1.29 123.96 1.29L123.96 1.29Q124.14 1.29 124.23 1.36Q124.32 1.43 124.28 1.55L124.28 1.55L124.19 1.89Q124.04 2.46 123.89 3.07Q123.73 3.68 123.65 4.21L123.65 4.21Q123.54 5.00 123.54 5.40L123.54 5.40Q123.54 6.48 124.08 6.78L124.08 6.78Q124.26 6.87 124.43 6.87L124.43 6.87Q125.01 6.87 125.46 5.96Q125.92 5.04 126.16 3.89Q126.41 2.74 126.38 2.25L126.38 2.25Q126.36 1.99 126.69 1.79Q127.01 1.60 127.36 1.60L127.36 1.60Q127.82 1.60 127.86 1.96L127.86 1.96L127.86 2.06L127.90 2.18ZM132.59 5.07Q131.88 5.61 131.43 6.83L131.43 6.83Q132.80 6.31 133.91 5.96L133.91 5.96Q133.45 5.32 132.97 5.10L132.97 5.10Q132.87 5.05 132.78 5.04Q132.69 5.03 132.68 5.03L132.68 5.03Q132.69 5.04 132.66 5.05Q132.62 5.07 132.59 5.07L132.59 5.07ZM132.65 4.07Q132.87 4.02 133.13 4.02L133.13 4.02Q134.47 4.02 135.56 5.82L135.56 5.82Q135.60 5.88 135.60 5.96L135.60 5.96Q135.60 6.12 135.41 6.29L135.41 6.29Q135.25 6.45 135.02 6.55L135.02 6.55Q133.62 7.17 131.12 8.02L131.12 8.02Q130.98 8.74 130.98 9.49L130.98 9.49Q130.98 9.84 131.00 10.00L131.00 10.00Q131.03 10.63 131.25 11.09L131.25 11.09Q131.32 11.24 131.45 11.38Q131.59 11.52 131.66 11.56L131.66 11.56Q131.70 11.59 131.80 11.59L131.80 11.59Q131.89 11.59 132.03 11.54Q132.16 11.48 132.33 11.38L132.33 11.38Q132.73 11.14 133.08 10.84Q133.43 10.53 133.92 10.04L133.92 10.04Q134.12 9.84 134.58 9.84L134.58 9.84Q134.83 9.84 135.01 9.92Q135.18 10.00 135.18 10.14L135.18 10.14Q135.18 10.26 135.04 10.42L135.04 10.42Q134.18 11.35 133.27 12.01Q132.36 12.67 131.45 12.67L131.45 12.67Q131.01 12.67 130.63 12.49L130.63 12.49Q130.00 12.19 129.72 11.55Q129.44 10.91 129.44 10.04L129.44 10.04Q129.44 9.39 129.61 8.53L129.61 8.53L129.50 8.55L129.39 8.60Q129.18 8.67 129.05 8.67L129.05 8.67Q128.86 8.67 128.74 8.57Q128.63 8.47 128.63 8.32L128.63 8.32Q128.63 8.13 128.78 7.96Q128.93 7.78 129.22 7.67L129.22 7.67L129.91 7.41Q130.03 7.01 130.28 6.38L130.28 6.38Q130.68 5.52 131.26 4.89Q131.85 4.26 132.65 4.07L132.65 4.07ZM144.16 3.99Q144.09 5.46 144.09 6.62L144.09 6.62Q144.09 9.51 144.48 11.76L144.48 11.76Q144.54 12.08 144.23 12.31Q143.92 12.54 143.56 12.54L143.56 12.54Q143.35 12.54 143.21 12.45Q143.07 12.35 143.04 12.15L143.04 12.15Q142.67 9.44 142.62 7.08L142.62 7.08Q141.95 8.68 141.01 11.56L141.01 11.56Q140.99 11.62 140.92 11.72L140.92 11.72Q140.80 11.89 140.55 11.98Q140.29 12.08 140.04 12.08L140.04 12.08Q139.85 12.08 139.73 12.03L139.73 12.03Q139.55 11.93 139.55 11.76L139.55 11.76Q139.55 11.72 139.58 11.61L139.58 11.61Q139.59 11.45 139.59 11.16L139.59 11.16Q139.59 10.67 139.51 9.74L139.51 9.74L139.45 8.99Q139.40 7.62 139.36 6.93L139.36 6.93Q138.68 8.16 138.29 8.75L138.29 8.75Q137.96 10.53 137.17 12.19L137.17 12.19Q137.07 12.39 136.75 12.53Q136.43 12.67 136.12 12.67L136.12 12.67Q135.93 12.67 135.81 12.60Q135.69 12.53 135.69 12.40L135.69 12.40Q135.69 12.32 135.73 12.22L135.73 12.22Q136.37 10.82 136.71 9.35L136.71 9.35Q136.65 9.30 136.65 9.20L136.65 9.20Q136.65 9.06 136.77 8.90L136.77 8.90L136.82 8.81Q137.05 7.69 137.05 6.43L137.05 6.43Q137.05 5.89 137.00 5.38L137.00 5.38Q136.99 5.14 137.33 4.94Q137.66 4.75 138.01 4.75L138.01 4.75Q138.21 4.75 138.33 4.83Q138.46 4.91 138.47 5.07L138.47 5.07Q138.50 5.32 138.53 5.88L138.53 5.88Q138.85 5.29 139.22 4.77L139.22 4.77Q139.24 4.54 139.55 4.36Q139.86 4.19 140.20 4.19L140.20 4.19Q140.41 4.19 140.55 4.28Q140.70 4.37 140.71 4.56L140.71 4.56Q140.85 6.37 140.91 7.78L140.91 7.78Q141.85 5.49 142.77 3.99L142.77 3.99Q142.87 3.84 143.15 3.71Q143.43 3.58 143.70 3.58L143.70 3.58Q143.91 3.58 144.04 3.68Q144.17 3.78 144.16 3.99L144.16 3.99Z"></path></g><!----><!----></svg>